<svg xmlns="http://www.w3.org/2000/svg" width="268.22222222222223mm" height="264.9999999999999mm" viewBox="0 0 268.22222222222223 264.9999999999999" font-family="Helvetica,Arial,sans-serif">
<title>Olcu foyu</title>
<rect width="268.22222222222223" height="264.9999999999999" fill="#ffffff"/>
<rect x="34.00" y="44.00" width="82.22" height="60.00" fill="#f7f7f5" stroke="none" stroke-width="0" />
<rect x="31.78" y="44.00" width="2.22" height="60.00" fill="#e8eaec" stroke="#14161a" stroke-width="0.5" />
<rect x="116.22" y="44.00" width="2.22" height="60.00" fill="#e8eaec" stroke="#14161a" stroke-width="0.5" />
<rect x="31.78" y="41.78" width="86.67" height="2.22" fill="#e8eaec" stroke="#14161a" stroke-width="0.5" />
<rect x="46.89" y="41.78" width="63.33" height="2.22" fill="#ffffff" stroke="#14161a" stroke-width="0.5" />
<line x1="46.89" y1="42.89" x2="110.22" y2="42.89" stroke="#5d6570" stroke-width="0.4" />
<rect x="72.44" y="41.56" width="13.11" height="2.44" fill="#eef1f3" stroke="#5d6570" stroke-width="0.35" />
<rect x="34.00" y="104.00" width="21.11" height="1.78" fill="#fdf6dc" stroke="#14161a" stroke-width="0.5" />
<line x1="56.00" y1="104.00" x2="56.00" y2="79.11" stroke="#14161a" stroke-width="0.5" />
<path d="M 80.89 104.00 A 24.89 24.89 0 0 0 56.00 79.11" fill="none" stroke="#a8aeb6" stroke-width="0.22" stroke-dasharray="1.6 1.2"/>
<rect x="81.78" y="104.00" width="7.78" height="1.78" fill="#e3f0dd" stroke="#14161a" stroke-width="0.5" />
<rect x="89.56" y="104.00" width="26.67" height="1.78" fill="#fdf6dc" stroke="#14161a" stroke-width="0.5" />
<rect x="79.11" y="74.11" width="35.56" height="16.67" fill="#ffffff" stroke="#a8aeb6" stroke-width="0.3" />
<text x="96.89" y="83.34" font-size="2.2" fill="#a8aeb6" text-anchor="middle" >M1</text>
<rect x="34.11" y="85.11" width="12.22" height="17.78" fill="#ffffff" stroke="#a8aeb6" stroke-width="0.3" />
<text x="40.22" y="94.90" font-size="2.2" fill="#a8aeb6" text-anchor="middle" >D1</text>
<rect x="88.22" y="63.78" width="13.78" height="13.78" fill="#ffffff" stroke="#a8aeb6" stroke-width="0.3" />
<text x="95.11" y="71.57" font-size="2.2" fill="#a8aeb6" text-anchor="middle" >S1</text>
<rect x="35.33" y="72.00" width="12.00" height="10.67" fill="#ffffff" stroke="#a8aeb6" stroke-width="0.3" />
<text x="41.33" y="78.23" font-size="2.2" fill="#a8aeb6" text-anchor="middle" >S2</text>
<rect x="102.89" y="44.00" width="13.33" height="28.89" fill="#ffffff" stroke="#a8aeb6" stroke-width="0.3" />
<text x="109.56" y="59.34" font-size="2.2" fill="#a8aeb6" text-anchor="middle" >A1</text>
<rect x="96.44" y="94.44" width="8.44" height="8.44" fill="#ffffff" stroke="#a8aeb6" stroke-width="0.3" />
<text x="100.67" y="99.57" font-size="2.2" fill="#a8aeb6" text-anchor="middle" >C1</text>
<rect x="84.67" y="78.44" width="6.67" height="6.67" fill="#ffffff" stroke="#a8aeb6" stroke-width="0.3" />
<text x="88.00" y="82.68" font-size="2.2" fill="#a8aeb6" text-anchor="middle" >W1</text>
<circle cx="78.56" cy="51.00" r="3.40" fill="#fffdf3" stroke="#b8860b" stroke-width="0.4"/><text x="78.56" y="52.15" font-size="2.9" fill="#7a5c05" text-anchor="middle" font-weight="700">3</text>
<circle cx="40.44" cy="51.00" r="3.40" fill="#fffdf3" stroke="#b8860b" stroke-width="0.4"/><text x="40.44" y="52.15" font-size="2.9" fill="#7a5c05" text-anchor="middle" font-weight="700">4</text>
<circle cx="79.00" cy="35.00" r="3.40" fill="#fffdf3" stroke="#b8860b" stroke-width="0.4"/><text x="79.00" y="36.15" font-size="2.9" fill="#7a5c05" text-anchor="middle" font-weight="700">13</text>
<circle cx="44.56" cy="96.00" r="3.40" fill="#fffdf3" stroke="#b8860b" stroke-width="0.4"/><text x="44.56" y="97.15" font-size="2.9" fill="#7a5c05" text-anchor="middle" font-weight="700">5</text>
<circle cx="85.67" cy="96.00" r="3.40" fill="#fffdf3" stroke="#b8860b" stroke-width="0.4"/><text x="85.67" y="97.15" font-size="2.9" fill="#7a5c05" text-anchor="middle" font-weight="700">6</text>
<circle cx="102.89" cy="96.00" r="3.40" fill="#fffdf3" stroke="#b8860b" stroke-width="0.4"/><text x="102.89" y="97.15" font-size="2.9" fill="#7a5c05" text-anchor="middle" font-weight="700">7</text>
<circle cx="31.22" cy="94.00" r="3.40" fill="#fffdf3" stroke="#b8860b" stroke-width="0.4"/><text x="31.22" y="95.15" font-size="2.9" fill="#7a5c05" text-anchor="middle" font-weight="700">8</text>
<circle cx="118.56" cy="58.44" r="3.40" fill="#fffdf3" stroke="#b8860b" stroke-width="0.4"/><text x="118.56" y="59.59" font-size="2.9" fill="#7a5c05" text-anchor="middle" font-weight="700">10</text>
<text x="75.11" y="117.00" font-size="2.6" fill="#5d6570" text-anchor="middle" >GİRİŞ</text>
<text x="75.11" y="29.00" font-size="2.6" fill="#5d6570" text-anchor="middle" >PENCERE DUVARI</text>
<text x="28.78" y="74.00" font-size="2.4" fill="#5d6570" text-anchor="middle" transform="rotate(-90 28.78 74.00)">SOL</text>
<text x="121.44" y="74.00" font-size="2.4" fill="#5d6570" text-anchor="middle" transform="rotate(90 121.44 74.00)">SAĞ</text>
<text x="142.22" y="42.00" font-size="5" fill="#14161a" text-anchor="start" font-weight="700" letter-spacing="0.4">ÖLÇÜ FÖYÜ</text>
<text x="142.22" y="47.50" font-size="2.5" fill="#5d6570" text-anchor="start" >Oda Tasarimi / Room Design · ofis odası · ölçüler cm · 2026-09-01</text>
<line x1="142.22" y1="54.00" x2="250.22" y2="54.00" stroke="#14161a" stroke-width="0.4" />
<text x="150.22" y="58.60" font-size="2.4" fill="#5d6570" text-anchor="start" font-weight="700">Ne ölçülecek</text>
<text x="216.22" y="58.60" font-size="2.2" fill="#5d6570" text-anchor="start" >modeldeki kabul</text>
<text x="241.22" y="58.60" font-size="2.2" fill="#5d6570" text-anchor="middle" >ölçülen</text>
<line x1="142.22" y1="61.00" x2="250.22" y2="61.00" stroke="#5d6570" stroke-width="0.22" />
<text x="142.22" y="66.40" font-size="2.3" fill="#b8860b" text-anchor="start" font-weight="700" letter-spacing="0.3">PENCERE</text>
<circle cx="145.62" cy="75.20" r="3.40" fill="#fffdf3" stroke="#b8860b" stroke-width="0.4"/><text x="145.62" y="76.35" font-size="2.9" fill="#7a5c05" text-anchor="middle" font-weight="700">1</text>
<text x="150.72" y="76.20" font-size="2.45" fill="#14161a" text-anchor="start" font-weight="700">Denizlik üst kotu (döşemeden denizliğin üstüne)</text>
<text x="216.22" y="76.20" font-size="2.3" fill="#5d6570" text-anchor="start" >80 cm</text>
<rect x="230.22" y="72.00" width="20.00" height="5.80" fill="#ffffff" stroke="#c8ccd2" stroke-width="0.35" />
<text x="227.72" y="76.20" font-size="2.4" fill="#b8860b" text-anchor="end" >★</text>
<line x1="142.22" y1="78.40" x2="250.22" y2="78.40" stroke="#e8eaec" stroke-width="0.18" />
<circle cx="145.62" cy="83.80" r="3.40" fill="#fffdf3" stroke="#b8860b" stroke-width="0.4"/><text x="145.62" y="84.95" font-size="2.9" fill="#7a5c05" text-anchor="middle" font-weight="700">2</text>
<text x="150.72" y="84.80" font-size="2.45" fill="#33383f" text-anchor="start" >Kasa dış yüksekliği (denizlik üstünden kasa üstüne)</text>
<text x="216.22" y="84.80" font-size="2.3" fill="#5d6570" text-anchor="start" >130 cm</text>
<rect x="230.22" y="80.60" width="20.00" height="5.80" fill="#ffffff" stroke="#c8ccd2" stroke-width="0.35" />
<line x1="142.22" y1="87.00" x2="250.22" y2="87.00" stroke="#e8eaec" stroke-width="0.18" />
<circle cx="145.62" cy="92.40" r="3.40" fill="#fffdf3" stroke="#b8860b" stroke-width="0.4"/><text x="145.62" y="93.55" font-size="2.9" fill="#7a5c05" text-anchor="middle" font-weight="700">3</text>
<text x="150.72" y="93.40" font-size="2.45" fill="#33383f" text-anchor="start" >Kasa dış genişliği</text>
<text x="216.22" y="93.40" font-size="2.3" fill="#5d6570" text-anchor="start" >285 cm</text>
<rect x="230.22" y="89.20" width="20.00" height="5.80" fill="#ffffff" stroke="#c8ccd2" stroke-width="0.35" />
<line x1="142.22" y1="95.60" x2="250.22" y2="95.60" stroke="#e8eaec" stroke-width="0.18" />
<circle cx="145.62" cy="101.00" r="3.40" fill="#fffdf3" stroke="#b8860b" stroke-width="0.4"/><text x="145.62" y="102.15" font-size="2.9" fill="#7a5c05" text-anchor="middle" font-weight="700">4</text>
<text x="150.72" y="102.00" font-size="2.45" fill="#33383f" text-anchor="start" >Kasanın sol duvara mesafesi</text>
<text x="216.22" y="102.00" font-size="2.3" fill="#5d6570" text-anchor="start" >58 cm</text>
<rect x="230.22" y="97.80" width="20.00" height="5.80" fill="#ffffff" stroke="#c8ccd2" stroke-width="0.35" />
<line x1="142.22" y1="104.20" x2="250.22" y2="104.20" stroke="#e8eaec" stroke-width="0.18" />
<text x="142.22" y="107.40" font-size="2.3" fill="#b8860b" text-anchor="start" font-weight="700" letter-spacing="0.3">KAPI DUVARI</text>
<circle cx="145.62" cy="116.20" r="3.40" fill="#fffdf3" stroke="#b8860b" stroke-width="0.4"/><text x="145.62" y="117.35" font-size="2.9" fill="#7a5c05" text-anchor="middle" font-weight="700">5</text>
<text x="150.72" y="117.20" font-size="2.45" fill="#33383f" text-anchor="start" >Sol duvar ile kapı kasası arası (sarı panel)</text>
<text x="216.22" y="117.20" font-size="2.3" fill="#5d6570" text-anchor="start" >95 cm</text>
<rect x="230.22" y="113.00" width="20.00" height="5.80" fill="#ffffff" stroke="#c8ccd2" stroke-width="0.35" />
<line x1="142.22" y1="119.40" x2="250.22" y2="119.40" stroke="#e8eaec" stroke-width="0.18" />
<circle cx="145.62" cy="124.80" r="3.40" fill="#fffdf3" stroke="#b8860b" stroke-width="0.4"/><text x="145.62" y="125.95" font-size="2.9" fill="#7a5c05" text-anchor="middle" font-weight="700">6</text>
<text x="150.72" y="125.80" font-size="2.45" fill="#33383f" text-anchor="start" >Yeşil düşey şerit genişliği</text>
<text x="216.22" y="125.80" font-size="2.3" fill="#5d6570" text-anchor="start" >35 cm</text>
<rect x="230.22" y="121.60" width="20.00" height="5.80" fill="#ffffff" stroke="#c8ccd2" stroke-width="0.35" />
<line x1="142.22" y1="128.00" x2="250.22" y2="128.00" stroke="#e8eaec" stroke-width="0.18" />
<circle cx="145.62" cy="133.40" r="3.40" fill="#fffdf3" stroke="#b8860b" stroke-width="0.4"/><text x="145.62" y="134.55" font-size="2.9" fill="#7a5c05" text-anchor="middle" font-weight="700">7</text>
<text x="150.72" y="134.40" font-size="2.45" fill="#33383f" text-anchor="start" >Kapı kasası ile sağ duvar arası (sarı panel)</text>
<text x="216.22" y="134.40" font-size="2.3" fill="#5d6570" text-anchor="start" >120 cm</text>
<rect x="230.22" y="130.20" width="20.00" height="5.80" fill="#ffffff" stroke="#c8ccd2" stroke-width="0.35" />
<line x1="142.22" y1="136.60" x2="250.22" y2="136.60" stroke="#e8eaec" stroke-width="0.18" />
<text x="142.22" y="139.80" font-size="2.3" fill="#b8860b" text-anchor="start" font-weight="700" letter-spacing="0.3">DOLAP</text>
<circle cx="145.62" cy="148.60" r="3.40" fill="#fffdf3" stroke="#b8860b" stroke-width="0.4"/><text x="145.62" y="149.75" font-size="2.9" fill="#7a5c05" text-anchor="middle" font-weight="700">8</text>
<text x="150.72" y="149.60" font-size="2.45" fill="#33383f" text-anchor="start" >Dolap hangi duvara dayalı? (sol / ön) + o duvardan mesafesi</text>
<text x="216.22" y="149.60" font-size="2.3" fill="#5d6570" text-anchor="start" >sol duvar</text>
<rect x="230.22" y="145.40" width="20.00" height="5.80" fill="#ffffff" stroke="#c8ccd2" stroke-width="0.35" />
<line x1="142.22" y1="151.80" x2="250.22" y2="151.80" stroke="#e8eaec" stroke-width="0.18" />
<circle cx="145.62" cy="157.20" r="3.40" fill="#fffdf3" stroke="#b8860b" stroke-width="0.4"/><text x="145.62" y="158.35" font-size="2.9" fill="#7a5c05" text-anchor="middle" font-weight="700">9</text>
<text x="150.72" y="158.20" font-size="2.45" fill="#33383f" text-anchor="start" >Aynanın sol duvara mesafesi ve genişliği</text>
<text x="216.22" y="158.20" font-size="2.3" fill="#5d6570" text-anchor="start" >58 cm / 34 cm</text>
<rect x="230.22" y="154.00" width="20.00" height="5.80" fill="#ffffff" stroke="#c8ccd2" stroke-width="0.35" />
<line x1="142.22" y1="160.40" x2="250.22" y2="160.40" stroke="#e8eaec" stroke-width="0.18" />
<text x="142.22" y="163.60" font-size="2.3" fill="#b8860b" text-anchor="start" font-weight="700" letter-spacing="0.3">TEZGÂH</text>
<circle cx="145.62" cy="172.40" r="3.40" fill="#fffdf3" stroke="#b8860b" stroke-width="0.4"/><text x="145.62" y="173.55" font-size="2.9" fill="#7a5c05" text-anchor="middle" font-weight="700">10</text>
<text x="150.72" y="173.40" font-size="2.45" fill="#33383f" text-anchor="start" >Sağ duvar tezgâhının uzunluğu × derinliği</text>
<text x="216.22" y="173.40" font-size="2.3" fill="#5d6570" text-anchor="start" >130×60 cm</text>
<rect x="230.22" y="169.20" width="20.00" height="5.80" fill="#ffffff" stroke="#c8ccd2" stroke-width="0.35" />
<line x1="142.22" y1="175.60" x2="250.22" y2="175.60" stroke="#e8eaec" stroke-width="0.18" />
<circle cx="145.62" cy="181.00" r="3.40" fill="#fffdf3" stroke="#b8860b" stroke-width="0.4"/><text x="145.62" y="182.15" font-size="2.9" fill="#7a5c05" text-anchor="middle" font-weight="700">11</text>
<text x="150.72" y="182.00" font-size="2.45" fill="#33383f" text-anchor="start" >Tezgâhın ön duvara mesafesi</text>
<text x="216.22" y="182.00" font-size="2.3" fill="#5d6570" text-anchor="start" >140 cm</text>
<rect x="230.22" y="177.80" width="20.00" height="5.80" fill="#ffffff" stroke="#c8ccd2" stroke-width="0.35" />
<line x1="142.22" y1="184.20" x2="250.22" y2="184.20" stroke="#e8eaec" stroke-width="0.18" />
<text x="142.22" y="187.40" font-size="2.3" fill="#b8860b" text-anchor="start" font-weight="700" letter-spacing="0.3">RADYATÖR</text>
<circle cx="145.62" cy="196.20" r="3.40" fill="#fffdf3" stroke="#b8860b" stroke-width="0.4"/><text x="145.62" y="197.35" font-size="2.9" fill="#7a5c05" text-anchor="middle" font-weight="700">12</text>
<text x="150.72" y="197.20" font-size="2.45" fill="#33383f" text-anchor="start" >Radyatör genişliği ve dilim sayısı</text>
<text x="216.22" y="197.20" font-size="2.3" fill="#5d6570" text-anchor="start" >59 cm / 8</text>
<rect x="230.22" y="193.00" width="20.00" height="5.80" fill="#ffffff" stroke="#c8ccd2" stroke-width="0.35" />
<line x1="142.22" y1="199.40" x2="250.22" y2="199.40" stroke="#e8eaec" stroke-width="0.18" />
<circle cx="145.62" cy="204.80" r="3.40" fill="#fffdf3" stroke="#b8860b" stroke-width="0.4"/><text x="145.62" y="205.95" font-size="2.9" fill="#7a5c05" text-anchor="middle" font-weight="700">13</text>
<text x="150.72" y="205.80" font-size="2.45" fill="#33383f" text-anchor="start" >Radyatörün sol duvara mesafesi</text>
<text x="216.22" y="205.80" font-size="2.3" fill="#5d6570" text-anchor="start" >173 cm</text>
<rect x="230.22" y="201.60" width="20.00" height="5.80" fill="#ffffff" stroke="#c8ccd2" stroke-width="0.35" />
<line x1="142.22" y1="208.00" x2="250.22" y2="208.00" stroke="#e8eaec" stroke-width="0.18" />
<text x="142.22" y="211.20" font-size="2.3" fill="#b8860b" text-anchor="start" font-weight="700" letter-spacing="0.3">GENEL</text>
<circle cx="145.62" cy="220.00" r="3.40" fill="#fffdf3" stroke="#b8860b" stroke-width="0.4"/><text x="145.62" y="221.15" font-size="2.9" fill="#7a5c05" text-anchor="middle" font-weight="700">14</text>
<text x="150.72" y="221.00" font-size="2.45" fill="#14161a" text-anchor="start" font-weight="700">Net kat yüksekliği (döşemeden asma tavana)</text>
<text x="216.22" y="221.00" font-size="2.3" fill="#5d6570" text-anchor="start" >290 cm</text>
<rect x="230.22" y="216.80" width="20.00" height="5.80" fill="#ffffff" stroke="#c8ccd2" stroke-width="0.35" />
<text x="227.72" y="221.00" font-size="2.4" fill="#b8860b" text-anchor="end" >★</text>
<line x1="142.22" y1="223.20" x2="250.22" y2="223.20" stroke="#e8eaec" stroke-width="0.18" />
<circle cx="145.62" cy="228.60" r="3.40" fill="#fffdf3" stroke="#b8860b" stroke-width="0.4"/><text x="145.62" y="229.75" font-size="2.9" fill="#7a5c05" text-anchor="middle" font-weight="700">15</text>
<text x="150.72" y="229.60" font-size="2.45" fill="#33383f" text-anchor="start" >Ankastre dolap bankosu alt kotu / derinliği</text>
<text x="216.22" y="229.60" font-size="2.3" fill="#5d6570" text-anchor="start" >75 cm / 35 cm</text>
<rect x="230.22" y="225.40" width="20.00" height="5.80" fill="#ffffff" stroke="#c8ccd2" stroke-width="0.35" />
<line x1="142.22" y1="231.80" x2="250.22" y2="231.80" stroke="#e8eaec" stroke-width="0.18" />
<text x="142.22" y="238.60" font-size="2.4" fill="#b8860b" text-anchor="start" >★ En kritik ikisi: denizlik kotu (1) ve net kat yüksekliği (14).</text>
<text x="142.22" y="243.20" font-size="2.3" fill="#5d6570" text-anchor="start" >Bu değerler src/config/room.js içinde tek yerde tanımlı. Girildiğinde plan,</text>
<text x="142.22" y="247.00" font-size="2.3" fill="#5d6570" text-anchor="start" >görünüşler, kesitler, 3B model ve metraj birlikte güncellenir.</text>
</svg>