<svg xmlns="http://www.w3.org/2000/svg" width="354mm" height="348mm"
  viewBox="0 0 354 348" font-family="Helvetica,Arial,sans-serif">
<title>Yerlesim plani</title>
<rect width="354" height="348" fill="#ffffff"/>
<rect x="95.00" y="129.00" width="148.00" height="108.00" fill="#f3f1ec" stroke="none" stroke-width="0" />
<defs><pattern id="h" width="1.6" height="1.6" patternTransform="rotate(45)" patternUnits="userSpaceOnUse">
    <line x1="0" y1="0" x2="0" y2="1.6" stroke="#c9ced6" stroke-width="0.5"/></pattern></defs>
<rect x="91.00" y="129.00" width="4.00" height="108.00" fill="url(#h)" stroke="#111318" stroke-width="0.5" />
<rect x="243.00" y="129.00" width="4.00" height="108.00" fill="url(#h)" stroke="#111318" stroke-width="0.5" />
<rect x="91.00" y="125.00" width="156.00" height="4.00" fill="url(#h)" stroke="#111318" stroke-width="0.5" />
<rect x="95.00" y="237.00" width="38.00" height="3.20" fill="#faf9f6" stroke="#111318" stroke-width="0.5" />
<rect x="133.00" y="237.00" width="1.60" height="3.20" fill="#c9ced6" stroke="#111318" stroke-width="0.5" />
<rect x="179.40" y="237.00" width="1.60" height="3.20" fill="#c9ced6" stroke="#111318" stroke-width="0.5" />
<line x1="134.60" y1="237.00" x2="134.60" y2="192.20" stroke="#111318" stroke-width="0.6" />
<path d="M 179.40 237.00 A 44.80 44.80 0 0 0 115.67 196.40"
        fill="none" stroke="#98a0ab" stroke-width="0.22" stroke-dasharray="1.6 1.2"/>
<line x1="134.60" y1="237.00" x2="115.67" y2="196.40" stroke="#b8860b" stroke-width="0.3" stroke-dasharray="2 1.5"/>
<text x="149.52" y="207.40" font-size="2.3" fill="#b8860b" text-anchor="middle" >azami 115°</text>
<rect x="181.00" y="237.00" width="14.00" height="3.20" fill="#dbe4de" stroke="#111318" stroke-width="0.5" />
<rect x="195.00" y="237.00" width="48.00" height="3.20" fill="#faf9f6" stroke="#111318" stroke-width="0.5" />
<rect x="118.20" y="129.00" width="114.00" height="4.00" fill="#ffffff" stroke="#111318" stroke-width="0.5" />
<line x1="118.20" y1="130.80" x2="232.20" y2="130.80" stroke="#5a626e" stroke-width="0.45" />
<line x1="118.20" y1="131.48" x2="232.20" y2="131.48" stroke="#5a626e" stroke-width="0.45" />
<line x1="118.20" y1="129.00" x2="118.20" y2="133.00" stroke="#111318" stroke-width="0.35" />
<line x1="137.40" y1="129.00" x2="137.40" y2="133.00" stroke="#111318" stroke-width="0.35" />
<line x1="156.60" y1="129.00" x2="156.60" y2="133.00" stroke="#111318" stroke-width="0.35" />
<line x1="179.00" y1="129.00" x2="179.00" y2="133.00" stroke="#111318" stroke-width="0.35" />
<rect x="179.00" y="130.60" width="32.40" height="1.04" fill="#e8e8e6" stroke="#111318" stroke-width="0.45" />
<text x="195.20" y="124.50" font-size="2" fill="#b8860b" text-anchor="middle" >açılır</text>
<line x1="211.40" y1="129.00" x2="211.40" y2="133.00" stroke="#111318" stroke-width="0.35" />
<line x1="232.20" y1="129.00" x2="232.20" y2="133.00" stroke="#111318" stroke-width="0.35" />
<rect x="116.60" y="124.20" width="117.20" height="4.80" fill="none" stroke="#98a0ab" stroke-width="0.28" stroke-dasharray="2 1.2"/>
<line x1="95.00" y1="87.60" x2="95.00" y2="90.40" stroke="#1b4f7a" stroke-width="0.18" /><line x1="118.20" y1="87.60" x2="118.20" y2="90.40" stroke="#1b4f7a" stroke-width="0.18" /><line x1="95.00" y1="89.00" x2="118.20" y2="89.00" stroke="#1b4f7a" stroke-width="0.18" /><line x1="94.00" y1="90.00" x2="96.00" y2="88.00" stroke="#1b4f7a" stroke-width="0.3" /><line x1="117.20" y1="90.00" x2="119.20" y2="88.00" stroke="#1b4f7a" stroke-width="0.3" /><text x="106.60" y="87.90" font-size="2.5" fill="#1b4f7a" text-anchor="middle" >58</text>
<line x1="118.20" y1="87.60" x2="118.20" y2="90.40" stroke="#1b4f7a" stroke-width="0.18" /><line x1="232.20" y1="87.60" x2="232.20" y2="90.40" stroke="#1b4f7a" stroke-width="0.18" /><line x1="118.20" y1="89.00" x2="232.20" y2="89.00" stroke="#1b4f7a" stroke-width="0.18" /><line x1="117.20" y1="90.00" x2="119.20" y2="88.00" stroke="#1b4f7a" stroke-width="0.3" /><line x1="231.20" y1="90.00" x2="233.20" y2="88.00" stroke="#1b4f7a" stroke-width="0.3" /><text x="175.20" y="87.90" font-size="2.5" fill="#1b4f7a" text-anchor="middle" >285</text>
<line x1="232.20" y1="87.60" x2="232.20" y2="90.40" stroke="#1b4f7a" stroke-width="0.18" /><line x1="243.00" y1="87.60" x2="243.00" y2="90.40" stroke="#1b4f7a" stroke-width="0.18" /><line x1="232.20" y1="89.00" x2="243.00" y2="89.00" stroke="#1b4f7a" stroke-width="0.18" /><line x1="231.20" y1="90.00" x2="233.20" y2="88.00" stroke="#1b4f7a" stroke-width="0.3" /><line x1="242.00" y1="90.00" x2="244.00" y2="88.00" stroke="#1b4f7a" stroke-width="0.3" /><text x="237.60" y="87.90" font-size="2.5" fill="#1b4f7a" text-anchor="middle" >27</text>
<text x="175.20" y="83.50" font-size="2.4" fill="#b8860b" text-anchor="middle" font-weight="700">P1  denizlik +80  ·  üst kot 210</text>
<rect x="164.20" y="124.60" width="23.60" height="4.40" fill="#eef1f3" stroke="#5a626e" stroke-width="0.4" />
<line x1="167.15" y1="124.60" x2="167.15" y2="129.00" stroke="#98a0ab" stroke-width="0.18" />
<line x1="170.10" y1="124.60" x2="170.10" y2="129.00" stroke="#98a0ab" stroke-width="0.18" />
<line x1="173.05" y1="124.60" x2="173.05" y2="129.00" stroke="#98a0ab" stroke-width="0.18" />
<line x1="176.00" y1="124.60" x2="176.00" y2="129.00" stroke="#98a0ab" stroke-width="0.18" />
<line x1="178.95" y1="124.60" x2="178.95" y2="129.00" stroke="#98a0ab" stroke-width="0.18" />
<line x1="181.90" y1="124.60" x2="181.90" y2="129.00" stroke="#98a0ab" stroke-width="0.18" />
<line x1="184.85" y1="124.60" x2="184.85" y2="129.00" stroke="#98a0ab" stroke-width="0.18" />
<text x="176.00" y="121.60" font-size="2.2" fill="#b8860b" text-anchor="middle" >R1</text>
<rect x="229.00" y="129.00" width="14.00" height="108.00" fill="none" stroke="#98a0ab" stroke-width="0.3" stroke-dasharray="3 1.6"/>
<text x="236.00" y="183.00" font-size="2.1" fill="#98a0ab" text-anchor="middle" transform="rotate(-90 236.00 183.00)">AD1</text>
<rect x="155.00" y="161.20" width="64.00" height="30.00" fill="#ffffff" stroke="#5a626e" stroke-width="0.4" />
<line x1="155.00" y1="161.20" x2="219.00" y2="161.20" stroke="#98a0ab" stroke-width="0.9" />
<circle cx="187.00" cy="176.20" r="3.10" fill="#fffdf5" stroke="#b8860b" stroke-width="0.3"/><text x="187.00" y="177.15" font-size="2.5" fill="#7a5c05" text-anchor="middle" font-weight="700">M1</text>
<rect x="95.20" y="203.00" width="22.00" height="32.00" fill="#ffffff" stroke="#5a626e" stroke-width="0.4" />
<line x1="95.20" y1="203.00" x2="95.20" y2="235.00" stroke="#98a0ab" stroke-width="0.9" />
<circle cx="106.20" cy="219.00" r="3.10" fill="#fffdf5" stroke="#b8860b" stroke-width="0.3"/><text x="106.20" y="219.95" font-size="2.5" fill="#7a5c05" text-anchor="middle" font-weight="700">D1</text>
<rect x="174.60" y="145.80" width="24.80" height="24.80" fill="#ffffff" stroke="#5a626e" stroke-width="0.4" />
<line x1="174.60" y1="170.60" x2="199.40" y2="170.60" stroke="#98a0ab" stroke-width="0.9" />
<circle cx="187.00" cy="158.20" r="3.10" fill="#fffdf5" stroke="#b8860b" stroke-width="0.3"/><text x="187.00" y="159.15" font-size="2.5" fill="#7a5c05" text-anchor="middle" font-weight="700">S1</text>
<rect x="134.20" y="165.40" width="21.60" height="19.20" fill="#ffffff" stroke="#5a626e" stroke-width="0.4" />
<line x1="134.20" y1="165.40" x2="134.20" y2="184.60" stroke="#98a0ab" stroke-width="0.9" />
<circle cx="145.00" cy="175.00" r="3.10" fill="#fffdf5" stroke="#b8860b" stroke-width="0.3"/><text x="145.00" y="175.95" font-size="2.5" fill="#7a5c05" text-anchor="middle" font-weight="700">S2</text>
<rect x="219.00" y="129.00" width="24.00" height="52.00" fill="#ffffff" stroke="#5a626e" stroke-width="0.4" />
<line x1="243.00" y1="129.00" x2="243.00" y2="181.00" stroke="#98a0ab" stroke-width="0.9" />
<circle cx="231.00" cy="155.00" r="3.10" fill="#fffdf5" stroke="#b8860b" stroke-width="0.3"/><text x="231.00" y="155.95" font-size="2.5" fill="#7a5c05" text-anchor="middle" font-weight="700">A1</text>
<rect x="181.80" y="219.00" width="15.20" height="15.20" fill="#ffffff" stroke="#5a626e" stroke-width="0.4" />
<line x1="181.80" y1="219.00" x2="197.00" y2="219.00" stroke="#98a0ab" stroke-width="0.9" />
<circle cx="189.40" cy="226.60" r="3.10" fill="#fffdf5" stroke="#b8860b" stroke-width="0.3"/><text x="189.40" y="227.55" font-size="2.5" fill="#7a5c05" text-anchor="middle" font-weight="700">C1</text>
<rect x="161.00" y="171.00" width="12.00" height="12.00" fill="#ffffff" stroke="#5a626e" stroke-width="0.4" />
<line x1="161.00" y1="171.00" x2="173.00" y2="171.00" stroke="#98a0ab" stroke-width="0.9" />
<circle cx="167.00" cy="177.00" r="3.10" fill="#fffdf5" stroke="#b8860b" stroke-width="0.3"/><text x="167.00" y="177.95" font-size="2.5" fill="#7a5c05" text-anchor="middle" font-weight="700">W1</text>
<rect x="180.67" y="178.75" width="23.05" height="11.70" fill="none" stroke="#98a0ab" stroke-width="0.18" stroke-dasharray="1.2 1"/>
<rect x="207.18" y="170.54" width="9.24" height="18.51" fill="none" stroke="#98a0ab" stroke-width="0.18" stroke-dasharray="1.2 1"/>
<rect x="181.47" y="164.40" width="18.26" height="8.39" fill="none" stroke="#98a0ab" stroke-width="0.18" stroke-dasharray="1.2 1"/>
<rect x="204.11" y="164.63" width="3.39" height="4.75" fill="none" stroke="#98a0ab" stroke-width="0.18" stroke-dasharray="1.2 1"/>
<rect x="163.16" y="165.33" width="10.89" height="13.73" fill="none" stroke="#98a0ab" stroke-width="0.18" stroke-dasharray="1.2 1"/>
<rect x="178.80" y="183.60" width="4.40" height="4.40" fill="none" stroke="#98a0ab" stroke-width="0.18" stroke-dasharray="1.2 1"/>
<rect x="170.83" y="183.28" width="5.14" height="3.44" fill="none" stroke="#98a0ab" stroke-width="0.18" stroke-dasharray="1.2 1"/>
<rect x="168.80" y="174.00" width="4.40" height="4.40" fill="none" stroke="#98a0ab" stroke-width="0.18" stroke-dasharray="1.2 1"/>
<rect x="222.60" y="155.40" width="16.80" height="23.20" fill="none" stroke="#98a0ab" stroke-width="0.18" stroke-dasharray="1.2 1"/>
<rect x="228.40" y="134.40" width="5.20" height="5.20" fill="none" stroke="#98a0ab" stroke-width="0.18" stroke-dasharray="1.2 1"/>
<rect x="121.00" y="185.00" width="24.00" height="24.00" fill="none" stroke="#98a0ab" stroke-width="0.2" stroke-dasharray="0.8 0.8"/>
<rect x="183.00" y="185.00" width="24.00" height="24.00" fill="none" stroke="#98a0ab" stroke-width="0.2" stroke-dasharray="0.8 0.8"/>
<line x1="95.00" y1="248.80" x2="95.00" y2="251.60" stroke="#1b4f7a" stroke-width="0.18" /><line x1="133.00" y1="248.80" x2="133.00" y2="251.60" stroke="#1b4f7a" stroke-width="0.18" /><line x1="95.00" y1="250.20" x2="133.00" y2="250.20" stroke="#1b4f7a" stroke-width="0.18" /><line x1="94.00" y1="251.20" x2="96.00" y2="249.20" stroke="#1b4f7a" stroke-width="0.3" /><line x1="132.00" y1="251.20" x2="134.00" y2="249.20" stroke="#1b4f7a" stroke-width="0.3" /><text x="114.00" y="249.10" font-size="2.5" fill="#1b4f7a" text-anchor="middle" >95</text>
<line x1="133.00" y1="248.80" x2="133.00" y2="251.60" stroke="#1b4f7a" stroke-width="0.18" /><line x1="181.00" y1="248.80" x2="181.00" y2="251.60" stroke="#1b4f7a" stroke-width="0.18" /><line x1="133.00" y1="250.20" x2="181.00" y2="250.20" stroke="#1b4f7a" stroke-width="0.18" /><line x1="132.00" y1="251.20" x2="134.00" y2="249.20" stroke="#1b4f7a" stroke-width="0.3" /><line x1="180.00" y1="251.20" x2="182.00" y2="249.20" stroke="#1b4f7a" stroke-width="0.3" /><text x="157.00" y="249.10" font-size="2.5" fill="#1b4f7a" text-anchor="middle" >120</text>
<line x1="181.00" y1="248.80" x2="181.00" y2="251.60" stroke="#1b4f7a" stroke-width="0.18" /><line x1="195.00" y1="248.80" x2="195.00" y2="251.60" stroke="#1b4f7a" stroke-width="0.18" /><line x1="181.00" y1="250.20" x2="195.00" y2="250.20" stroke="#1b4f7a" stroke-width="0.18" /><line x1="180.00" y1="251.20" x2="182.00" y2="249.20" stroke="#1b4f7a" stroke-width="0.3" /><line x1="194.00" y1="251.20" x2="196.00" y2="249.20" stroke="#1b4f7a" stroke-width="0.3" /><text x="188.00" y="249.10" font-size="2.5" fill="#1b4f7a" text-anchor="middle" >35</text>
<line x1="195.00" y1="248.80" x2="195.00" y2="251.60" stroke="#1b4f7a" stroke-width="0.18" /><line x1="243.00" y1="248.80" x2="243.00" y2="251.60" stroke="#1b4f7a" stroke-width="0.18" /><line x1="195.00" y1="250.20" x2="243.00" y2="250.20" stroke="#1b4f7a" stroke-width="0.18" /><line x1="194.00" y1="251.20" x2="196.00" y2="249.20" stroke="#1b4f7a" stroke-width="0.3" /><line x1="242.00" y1="251.20" x2="244.00" y2="249.20" stroke="#1b4f7a" stroke-width="0.3" /><text x="219.00" y="249.10" font-size="2.5" fill="#1b4f7a" text-anchor="middle" >120</text>
<line x1="95.00" y1="257.80" x2="95.00" y2="260.60" stroke="#1b4f7a" stroke-width="0.18" /><line x1="243.00" y1="257.80" x2="243.00" y2="260.60" stroke="#1b4f7a" stroke-width="0.18" /><line x1="95.00" y1="259.20" x2="243.00" y2="259.20" stroke="#1b4f7a" stroke-width="0.18" /><line x1="94.00" y1="260.20" x2="96.00" y2="258.20" stroke="#1b4f7a" stroke-width="0.3" /><line x1="242.00" y1="260.20" x2="244.00" y2="258.20" stroke="#1b4f7a" stroke-width="0.3" /><text x="169.00" y="258.10" font-size="2.5" fill="#1b4f7a" text-anchor="middle" >370</text>
<line x1="259.40" y1="129.00" x2="256.60" y2="129.00" stroke="#1b4f7a" stroke-width="0.18" /><line x1="259.40" y1="237.00" x2="256.60" y2="237.00" stroke="#1b4f7a" stroke-width="0.18" /><line x1="258.00" y1="129.00" x2="258.00" y2="237.00" stroke="#1b4f7a" stroke-width="0.18" /><line x1="257.00" y1="128.00" x2="259.00" y2="130.00" stroke="#1b4f7a" stroke-width="0.3" /><line x1="257.00" y1="236.00" x2="259.00" y2="238.00" stroke="#1b4f7a" stroke-width="0.3" /><text x="259.20" y="183.00" font-size="2.5" fill="#1b4f7a"
       text-anchor="middle" transform="rotate(-90 259.20 183.00)">270</text>
<line x1="95.00" y1="114.60" x2="95.00" y2="117.40" stroke="#1b4f7a" stroke-width="0.18" /><line x1="155.00" y1="114.60" x2="155.00" y2="117.40" stroke="#1b4f7a" stroke-width="0.18" /><line x1="95.00" y1="116.00" x2="155.00" y2="116.00" stroke="#1b4f7a" stroke-width="0.18" /><line x1="94.00" y1="117.00" x2="96.00" y2="115.00" stroke="#1b4f7a" stroke-width="0.3" /><line x1="154.00" y1="117.00" x2="156.00" y2="115.00" stroke="#1b4f7a" stroke-width="0.3" /><text x="125.00" y="114.90" font-size="2.5" fill="#1b4f7a" text-anchor="middle" >150</text>
<line x1="155.00" y1="114.60" x2="155.00" y2="117.40" stroke="#1b4f7a" stroke-width="0.18" /><line x1="219.00" y1="114.60" x2="219.00" y2="117.40" stroke="#1b4f7a" stroke-width="0.18" /><line x1="155.00" y1="116.00" x2="219.00" y2="116.00" stroke="#1b4f7a" stroke-width="0.18" /><line x1="154.00" y1="117.00" x2="156.00" y2="115.00" stroke="#1b4f7a" stroke-width="0.3" /><line x1="218.00" y1="117.00" x2="220.00" y2="115.00" stroke="#1b4f7a" stroke-width="0.3" /><text x="187.00" y="114.90" font-size="2.5" fill="#1b4f7a" text-anchor="middle" >160</text>
<text x="224.00" y="116.90" font-size="2.3" fill="#b8860b" text-anchor="start" font-weight="700">M1</text>
<line x1="95.00" y1="106.60" x2="95.00" y2="109.40" stroke="#1b4f7a" stroke-width="0.18" /><line x1="181.80" y1="106.60" x2="181.80" y2="109.40" stroke="#1b4f7a" stroke-width="0.18" /><line x1="95.00" y1="108.00" x2="181.80" y2="108.00" stroke="#1b4f7a" stroke-width="0.18" /><line x1="94.00" y1="109.00" x2="96.00" y2="107.00" stroke="#1b4f7a" stroke-width="0.3" /><line x1="180.80" y1="109.00" x2="182.80" y2="107.00" stroke="#1b4f7a" stroke-width="0.3" /><text x="138.40" y="106.90" font-size="2.5" fill="#1b4f7a" text-anchor="middle" >217</text>
<line x1="181.80" y1="106.60" x2="181.80" y2="109.40" stroke="#1b4f7a" stroke-width="0.18" /><line x1="197.00" y1="106.60" x2="197.00" y2="109.40" stroke="#1b4f7a" stroke-width="0.18" /><line x1="181.80" y1="108.00" x2="197.00" y2="108.00" stroke="#1b4f7a" stroke-width="0.18" /><line x1="180.80" y1="109.00" x2="182.80" y2="107.00" stroke="#1b4f7a" stroke-width="0.3" /><line x1="196.00" y1="109.00" x2="198.00" y2="107.00" stroke="#1b4f7a" stroke-width="0.3" /><text x="189.40" y="106.90" font-size="2.5" fill="#1b4f7a" text-anchor="middle" >38</text>
<text x="202.00" y="108.90" font-size="2.3" fill="#b8860b" text-anchor="start" font-weight="700">C1</text>
<line x1="95.00" y1="98.60" x2="95.00" y2="101.40" stroke="#1b4f7a" stroke-width="0.18" /><line x1="219.00" y1="98.60" x2="219.00" y2="101.40" stroke="#1b4f7a" stroke-width="0.18" /><line x1="95.00" y1="100.00" x2="219.00" y2="100.00" stroke="#1b4f7a" stroke-width="0.18" /><line x1="94.00" y1="101.00" x2="96.00" y2="99.00" stroke="#1b4f7a" stroke-width="0.3" /><line x1="218.00" y1="101.00" x2="220.00" y2="99.00" stroke="#1b4f7a" stroke-width="0.3" /><text x="157.00" y="98.90" font-size="2.5" fill="#1b4f7a" text-anchor="middle" >310</text>
<line x1="219.00" y1="98.60" x2="219.00" y2="101.40" stroke="#1b4f7a" stroke-width="0.18" /><line x1="243.00" y1="98.60" x2="243.00" y2="101.40" stroke="#1b4f7a" stroke-width="0.18" /><line x1="219.00" y1="100.00" x2="243.00" y2="100.00" stroke="#1b4f7a" stroke-width="0.18" /><line x1="218.00" y1="101.00" x2="220.00" y2="99.00" stroke="#1b4f7a" stroke-width="0.3" /><line x1="242.00" y1="101.00" x2="244.00" y2="99.00" stroke="#1b4f7a" stroke-width="0.3" /><text x="231.00" y="98.90" font-size="2.5" fill="#1b4f7a" text-anchor="middle" >60</text>
<text x="248.00" y="100.90" font-size="2.3" fill="#b8860b" text-anchor="start" font-weight="700">A1</text>
<line x1="81.60" y1="203.00" x2="84.40" y2="203.00" stroke="#1b4f7a" stroke-width="0.18" /><line x1="81.60" y1="237.00" x2="84.40" y2="237.00" stroke="#1b4f7a" stroke-width="0.18" /><line x1="83.00" y1="203.00" x2="83.00" y2="237.00" stroke="#1b4f7a" stroke-width="0.18" /><line x1="82.00" y1="202.00" x2="84.00" y2="204.00" stroke="#1b4f7a" stroke-width="0.3" /><line x1="82.00" y1="236.00" x2="84.00" y2="238.00" stroke="#1b4f7a" stroke-width="0.3" /><text x="81.80" y="220.00" font-size="2.5" fill="#1b4f7a"
       text-anchor="middle" transform="rotate(-90 81.80 220.00)">85</text>
<text x="83.00" y="200.00" font-size="2.3" fill="#b8860b" text-anchor="middle" font-weight="700">D1</text>
<line x1="73.60" y1="165.40" x2="76.40" y2="165.40" stroke="#1b4f7a" stroke-width="0.18" /><line x1="73.60" y1="237.00" x2="76.40" y2="237.00" stroke="#1b4f7a" stroke-width="0.18" /><line x1="75.00" y1="165.40" x2="75.00" y2="237.00" stroke="#1b4f7a" stroke-width="0.18" /><line x1="74.00" y1="164.40" x2="76.00" y2="166.40" stroke="#1b4f7a" stroke-width="0.3" /><line x1="74.00" y1="236.00" x2="76.00" y2="238.00" stroke="#1b4f7a" stroke-width="0.3" /><text x="73.80" y="201.20" font-size="2.5" fill="#1b4f7a"
       text-anchor="middle" transform="rotate(-90 73.80 201.20)">179</text>
<text x="75.00" y="162.40" font-size="2.3" fill="#b8860b" text-anchor="middle" font-weight="700">S2</text>
<line x1="84.60" y1="193.00" x2="253.40" y2="193.00" stroke="#111318" stroke-width="0.5" stroke-dasharray="9 2.5 2 2.5"/><circle cx="84.60" cy="193.00" r="3.40" fill="#fff" stroke="#111318" stroke-width="0.4"/><text x="84.60" y="194.10" font-size="2.4" fill="#111318" text-anchor="middle" font-weight="700">1</text><circle cx="253.40" cy="193.00" r="3.40" fill="#fff" stroke="#111318" stroke-width="0.4"/><text x="253.40" y="194.10" font-size="2.4" fill="#111318" text-anchor="middle" font-weight="700">1</text>
<line x1="215.00" y1="247.40" x2="215.00" y2="118.60" stroke="#111318" stroke-width="0.5" stroke-dasharray="9 2.5 2 2.5"/><circle cx="215.00" cy="247.40" r="3.40" fill="#fff" stroke="#111318" stroke-width="0.4"/><text x="215.00" y="248.50" font-size="2.4" fill="#111318" text-anchor="middle" font-weight="700">2</text><circle cx="215.00" cy="118.60" r="3.40" fill="#fff" stroke="#111318" stroke-width="0.4"/><text x="215.00" y="119.70" font-size="2.4" fill="#111318" text-anchor="middle" font-weight="700">2</text>
<circle cx="169.00" cy="266.20" r="4.00" fill="#fff" stroke="#111318" stroke-width="0.3"/><text x="169.00" y="267.40" font-size="3.4" fill="#111318" text-anchor="middle" font-weight="700">A</text>
<circle cx="273.00" cy="183.00" r="4.00" fill="#fff" stroke="#111318" stroke-width="0.3"/><text x="273.00" y="184.20" font-size="3.4" fill="#111318" text-anchor="middle" font-weight="700">B</text>
<circle cx="169.00" cy="71.00" r="4.00" fill="#fff" stroke="#111318" stroke-width="0.3"/><text x="169.00" y="72.20" font-size="3.4" fill="#111318" text-anchor="middle" font-weight="700">C</text>
<circle cx="59.00" cy="183.00" r="4.00" fill="#fff" stroke="#111318" stroke-width="0.3"/><text x="59.00" y="184.20" font-size="3.4" fill="#111318" text-anchor="middle" font-weight="700">D</text>
<text x="169.00" y="274.20" font-size="2.4" fill="#111318" text-anchor="middle" >GIRIS</text>
<text x="75.00" y="65.00" font-size="3" fill="#111318" text-anchor="start" font-weight="700">OFIS / IDARI ODA   370x270 cm   Net alan 9.99 m²   Net yuk. 290 cm</text>
<rect x="221.00" y="289.00" width="78.00" height="30.00" fill="#ffffff" stroke="#111318" stroke-width="0.4" /><line x1="221.00" y1="297.00" x2="299.00" y2="297.00" stroke="#111318" stroke-width="0.25" /><line x1="221.00" y1="304.50" x2="299.00" y2="304.50" stroke="#5a626e" stroke-width="0.18" /><line x1="221.00" y1="311.00" x2="299.00" y2="311.00" stroke="#5a626e" stroke-width="0.18" /><text x="224.00" y="294.60" font-size="3.2" fill="#111318" text-anchor="start" font-weight="700">Oda Tasarimi / Room Design</text><text x="224.00" y="302.00" font-size="2.9" fill="#111318" text-anchor="start" >Yerlesim plani</text><text x="224.00" y="308.60" font-size="2.3" fill="#5a626e" text-anchor="start" >Olcek 1:25  ·  Olculer cm  ·  Pafta M-01</text><text x="296.00" y="294.60" font-size="2.6" fill="#b8860b" text-anchor="end" font-weight="700">22 Sakin yeşil + Masayı geri çek</text><text x="224.00" y="315.50" font-size="2.1" fill="#5a626e" text-anchor="start" >R00  2026-09-01  ·  parametrik model: src/config/room.js</text>
</svg>